<svg xmlns="http://www.w3.org/2000/svg" width="17.118" height="45.759" viewBox="0 0 17.118 45.759">
  <g id="arrow-long" transform="translate(59.034 20) rotate(90)">
    <path id="Контур_113" data-name="Контур 113" d="M25.431,49.657l-7.176-7.4a1.1,1.1,0,0,0-1.586,0,1.182,1.182,0,0,0,0,1.636l5.262,5.428h-40.81A1.139,1.139,0,0,0-20,50.475a1.139,1.139,0,0,0,1.121,1.157h40.81l-5.262,5.428a1.182,1.182,0,0,0,0,1.636,1.1,1.1,0,0,0,1.586,0l7.176-7.4A1.182,1.182,0,0,0,25.431,49.657Z" transform="translate(0)" fill="#ff4900"/>
  </g>
</svg>
