<svg xmlns="http://www.w3.org/2000/svg" width="24.791" height="18.883" viewBox="0 0 24.791 18.883">
  <g id="email-line" transform="translate(0 -61)">
    <g id="Сгруппировать_34841" data-name="Сгруппировать 34841" transform="translate(0 61)">
      <path id="Контур_36827" data-name="Контур 36827" d="M22.612,61H2.179A2.183,2.183,0,0,0,0,63.179V77.7a2.182,2.182,0,0,0,2.179,2.179H22.612A2.182,2.182,0,0,0,24.79,77.7V63.179A2.182,2.182,0,0,0,22.612,61Zm-.3,1.453-9.869,9.869L2.487,62.453ZM1.453,77.4V63.473l7,6.936ZM2.48,78.431l7-7,2.453,2.432a.726.726,0,0,0,1.025,0l2.392-2.392,6.962,6.962ZM23.338,77.4l-6.962-6.962,6.962-6.962Z" transform="translate(0 -61)" fill="#fff"/>
    </g>
  </g>
</svg>
