<svg id="Сгруппировать_34842" data-name="Сгруппировать 34842" xmlns="http://www.w3.org/2000/svg" width="25.471" height="25.508" viewBox="0 0 25.471 25.508">
  <path id="Контур_36828" data-name="Контур 36828" d="M20.485,41.732a2.509,2.509,0,0,0-1.82-.834,2.594,2.594,0,0,0-1.841.829l-1.7,1.7c-.14-.075-.28-.145-.415-.215-.194-.1-.377-.188-.533-.285a18.49,18.49,0,0,1-4.431-4.038,10.908,10.908,0,0,1-1.454-2.293c.441-.4.851-.824,1.249-1.227.151-.151.3-.307.452-.458a2.47,2.47,0,0,0,0-3.726l-1.47-1.47c-.167-.167-.339-.339-.5-.511-.323-.334-.662-.678-1.012-1a2.548,2.548,0,0,0-1.8-.791,2.637,2.637,0,0,0-1.83.791l-.011.011-1.83,1.847a3.939,3.939,0,0,0-1.168,2.5,9.438,9.438,0,0,0,.689,3.995,23.181,23.181,0,0,0,4.119,6.87,25.335,25.335,0,0,0,8.436,6.606,13.144,13.144,0,0,0,4.738,1.4c.113.005.232.011.339.011A4.057,4.057,0,0,0,21.794,50.1c.005-.011.016-.016.022-.027a12.239,12.239,0,0,1,.942-.974c.231-.221.468-.452.7-.694a2.686,2.686,0,0,0,.813-1.863,2.587,2.587,0,0,0-.829-1.847ZM22.413,47.4c-.005,0-.005.005,0,0-.21.226-.425.431-.657.657a14.158,14.158,0,0,0-1.039,1.077,2.6,2.6,0,0,1-2.024.856c-.081,0-.167,0-.248-.005a11.677,11.677,0,0,1-4.2-1.26A23.915,23.915,0,0,1,6.3,42.5a21.857,21.857,0,0,1-3.876-6.455,7.687,7.687,0,0,1-.6-3.37,2.471,2.471,0,0,1,.743-1.6L4.4,29.242a1.224,1.224,0,0,1,.818-.382A1.152,1.152,0,0,1,6,29.236l.016.016c.328.307.641.625.969.964.167.172.339.345.511.522l1.47,1.47a1.027,1.027,0,0,1,0,1.669c-.156.156-.307.312-.463.463-.452.463-.883.894-1.351,1.314-.011.011-.022.016-.027.027a1.1,1.1,0,0,0-.28,1.222l.016.048A11.8,11.8,0,0,0,8.6,39.789l.005.005a19.76,19.76,0,0,0,4.781,4.35,7.351,7.351,0,0,0,.662.361c.194.1.377.188.533.285.022.011.043.027.065.038a1.167,1.167,0,0,0,.533.135A1.151,1.151,0,0,0,16,44.591l1.841-1.841a1.218,1.218,0,0,1,.813-.4,1.1,1.1,0,0,1,.775.393l.011.011,2.966,2.966A1.064,1.064,0,0,1,22.413,47.4Z" transform="translate(-0.344 -25.931)" fill="#fff"/>
  <path id="Контур_36829" data-name="Контур 36829" d="M245.542,87.367a6.929,6.929,0,0,1,5.642,5.642.722.722,0,0,0,.716.6.962.962,0,0,0,.124-.011.728.728,0,0,0,.6-.84,8.378,8.378,0,0,0-6.827-6.827.731.731,0,0,0-.84.592A.719.719,0,0,0,245.542,87.367Z" transform="translate(-231.775 -81.299)" fill="#fff"/>
  <path id="Контур_36830" data-name="Контур 36830" d="M260.861,11.252A13.8,13.8,0,0,0,249.62.011a.726.726,0,1,0-.237,1.432,12.322,12.322,0,0,1,10.046,10.046.722.722,0,0,0,.716.6.961.961,0,0,0,.124-.011A.713.713,0,0,0,260.861,11.252Z" transform="translate(-235.401 0)" fill="#fff"/>
</svg>
