<svg id="Сгруппировать_34841" data-name="Сгруппировать 34841" xmlns="http://www.w3.org/2000/svg" width="24.339" height="18.54" viewBox="0 0 24.339 18.54">
  <path id="Контур_36827" data-name="Контур 36827" d="M22.2,61H2.139A2.143,2.143,0,0,0,0,63.139V77.4A2.143,2.143,0,0,0,2.139,79.54H22.2A2.143,2.143,0,0,0,24.339,77.4V63.139A2.143,2.143,0,0,0,22.2,61Zm-.3,1.426-9.69,9.69-9.773-9.69ZM1.426,77.105V63.428l6.868,6.809Zm1.008,1.008,6.872-6.872,2.408,2.387a.713.713,0,0,0,1.006,0l2.348-2.348L21.9,78.114Zm20.479-1.008L16.078,70.27l6.835-6.835Z" transform="translate(0 -61)" fill="#fff"/>
</svg>
