<svg xmlns="http://www.w3.org/2000/svg" width="19.245" height="23.788" viewBox="0 0 19.245 23.788">
  <g id="Сгруппировать_34878" data-name="Сгруппировать 34878" transform="translate(-293 -6936.26)">
    <g id="Сгруппировать_34838" data-name="Сгруппировать 34838" transform="translate(293 6936.26)">
      <g id="Сгруппировать_34837" data-name="Сгруппировать 34837" transform="translate(0)">
        <path id="Контур_36825" data-name="Контур 36825" d="M66.4,4.136a9.6,9.6,0,0,0-15.791,0,9.606,9.606,0,0,0-1.118,8.85,7.565,7.565,0,0,0,1.394,2.3l6.987,8.206a.831.831,0,0,0,1.266,0l6.985-8.2a7.573,7.573,0,0,0,1.394-2.3A9.608,9.608,0,0,0,66.4,4.136Zm-.441,8.273a5.933,5.933,0,0,1-1.1,1.8l0,0-6.353,7.462-6.357-7.467a5.936,5.936,0,0,1-1.1-1.8,7.946,7.946,0,0,1,.929-7.322,7.941,7.941,0,0,1,13.055,0A7.947,7.947,0,0,1,65.963,12.409Z" transform="translate(-48.886)" fill="#fff"/>
      </g>
    </g>
    <g id="Сгруппировать_34840" data-name="Сгруппировать 34840" transform="translate(298 6941.195)">
      <g id="Сгруппировать_34839" data-name="Сгруппировать 34839">
        <path id="Контур_36826" data-name="Контур 36826" d="M160.412,106.219a4.658,4.658,0,1,0,4.658,4.658A4.663,4.663,0,0,0,160.412,106.219Zm0,7.652a2.994,2.994,0,1,1,2.994-2.994A3,3,0,0,1,160.412,113.871Z" transform="translate(-155.754 -106.219)" fill="#fff"/>
      </g>
    </g>
  </g>
</svg>
